{"accessors":[{"bufferView":0,"componentType":5123,"count":1692,"max":[385],"min":[0],"type":"SCALAR"},{"bufferView":1,"componentType":5126,"count":386,"max":[0.13143736124038696,1.483898401260376,0.13136395812034607],"min":[-0.13114385306835175,0.0,-0.13136395812034607],"type":"VEC3"},{"bufferView":2,"componentType":5126,"count":386,"max":[1.0,1.0,0.9994415640830994],"min":[-0.99776691198349,-1.0,-0.9994415640830994],"type":"VEC3"},{"bufferView":3,"componentType":5126,"count":386,"max":[0.9840425252914429,1.0],"min":[-0.015957534313201904,0.0],"type":"VEC2"},{"bufferView":4,"componentType":5123,"count":1692,"max":[385],"min":[0],"type":"SCALAR"},{"bufferView":5,"componentType":5126,"count":386,"max":[0.07143737375736237,1.7806780338287354,0.07139748334884644],"min":[-0.07127784937620163,0.0,-0.07139748334884644],"type":"VEC3"},{"bufferView":6,"componentType":5126,"count":386,"max":[1.0,1.0,0.9994415640830994],"min":[-0.99776691198349,-1.0,-0.9994415640830994],"type":"VEC3"},{"bufferView":7,"componentType":5126,"count":386,"max":[0.9840425252914429,1.0],"min":[-0.01595747470855713,5.960464477539063e-08],"type":"VEC2"},{"bufferView":8,"componentType":5123,"count":1692,"max":[385],"min":[0],"type":"SCALAR"},{"bufferView":9,"componentType":5126,"count":386,"max":[0.03143737465143204,2.067312002182007,0.031419817358255386],"min":[-0.03136717155575752,0.0,-0.031419817358255386],"type":"VEC3"},{"bufferView":10,"componentType":5126,"count":386,"max":[1.0,1.0,0.9994415640830994],"min":[-0.99776691198349,-1.0,-0.9994415640830994],"type":"VEC3"},{"bufferView":11,"componentType":5126,"count":386,"max":[0.9840425252914429,1.0],"min":[-0.01595747470855713,0.0],"type":"VEC2"}],"asset":{"generator":"Soft8Soft Verge3D for 3ds Max plug-in","version":"2.0"},"bufferViews":[{"buffer":0,"byteLength":3384,"byteOffset":0,"target":34963},{"buffer":0,"byteLength":4632,"byteOffset":3384,"target":34962},{"buffer":0,"byteLength":4632,"byteOffset":8016,"target":34962},{"buffer":0,"byteLength":3088,"byteOffset":12648,"target":34962},{"buffer":0,"byteLength":3384,"byteOffset":15736,"target":34963},{"buffer":0,"byteLength":4632,"byteOffset":19120,"target":34962},{"buffer":0,"byteLength":4632,"byteOffset":23752,"target":34962},{"buffer":0,"byteLength":3088,"byteOffset":28384,"target":34962},{"buffer":0,"byteLength":3384,"byteOffset":31472,"target":34963},{"buffer":0,"byteLength":4632,"byteOffset":34856,"target":34962},{"buffer":0,"byteLength":4632,"byteOffset":39488,"target":34962},{"buffer":0,"byteLength":3088,"byteOffset":44120,"target":34962}],"buffers":[{"byteLength":47208,"uri":"APP.bin"}],"cameras":[{"extensions":{"S8S_v3d_camera":{"controls":"ORBIT","enablePan":true,"moveSpeed":1.0,"orbitMaxDistance":5000.0,"orbitMaxPolarAngle":3.141592653589793,"orbitMaxZoom":100.0,"orbitMinDistance":0.0,"orbitMinPolarAngle":0.0,"orbitMinZoom":0.009999999776482582,"orbitTarget":1,"rotateSpeed":1.0,"viewportFitInitialAspect":1.3333333333333333,"viewportFitType":"VERTICAL"}},"name":"Camera001","perspective":{"aspectRatio":1.3333333333333333,"yfov":0.7853981633974483,"zfar":1000.0,"znear":1.0},"type":"perspective"}],"extensions":{"S8S_v3d_clipping_planes":{},"S8S_v3d_curves":{},"S8S_v3d_light_probes":{},"S8S_v3d_lights":{"lights":[{"color":[0.0,0.0,0.0],"intensity":1,"name":"__AMBIENT__","profile":"max","type":"ambient"}]}},"extensionsUsed":["S8S_v3d_texture","S8S_v3d_materials","S8S_v3d_camera","S8S_v3d_lights","S8S_v3d_node","S8S_v3d_light_probes","S8S_v3d_clipping_planes","S8S_v3d_curves","S8S_v3d_scene"],"images":[{"uri":"Zbyg-Studio_0032_2k.hdr"}],"materials":[{"doubleSided":false,"extensions":{"S8S_v3d_materials":{"gtaoVisible":true,"nodeGraph":{"edges":[{"fromNode":1,"fromOutput":0,"toInput":0,"toNode":0},{"fromNode":1,"fromOutput":1,"toInput":1,"toNode":0}],"nodes":[{"inputs":[[1,1,1,1]],"is_active_output":true,"name":"MaxOutput","outputs":[],"type":"OUTPUT_MX"},{"brdfCurve":5.0,"brdfHigh":1.0,"brdfLow":0.05000000074505806,"brdfMode":true,"emitLuminance":1500.0,"inputFactors":[0,0,0,0,0,0,0,0,0,0,0,0,0,0,0,0,0,0,0,0,0,0,0,0,0],"inputs":[0.7900000214576721,[0.09803921568627451,0.09803921568627451,0.09803921568627451,1.0],1.0,[1.0,1.0,1.0,1.0],0.0,0.20000000298023224,0.0,1.0,0.0,0.0,[1.0,1.0,1.0,1.0],0.0,1.5199999809265137,0.0,[1.0,1.0,1.0,1.0],1.0,1.0,[0.0,0.0,0.0,1.0],0.0,[1.0,1.0,1.0,1.0],0.0,[0,0,0],[0,0,0],0,1],"is_active_output":false,"name":"Material #1","outputs":[[0,0,0,0]],"roughnessInv":false,"thinWalled":false,"transRoughnessInv":false,"transRoughnessLock":true,"type":"PHYSICAL_MX"}]},"profile":"max"}},"name":"Material #1"},{"doubleSided":false,"extensions":{"S8S_v3d_materials":{"gtaoVisible":true,"nodeGraph":{"edges":[{"fromNode":1,"fromOutput":0,"toInput":0,"toNode":0},{"fromNode":1,"fromOutput":1,"toInput":1,"toNode":0}],"nodes":[{"inputs":[[1,1,1,1]],"is_active_output":true,"name":"MaxOutput","outputs":[],"type":"OUTPUT_MX"},{"brdfCurve":5.0,"brdfHigh":1.0,"brdfLow":0.05000000074505806,"brdfMode":true,"emitLuminance":1500.0,"inputFactors":[0,0,0,0,0,0,0,0,0,0,0,0,0,0,0,0,0,0,0,0,0,0,0,0,0],"inputs":[0.9399999976158142,[0.3803921568627451,0.3803921568627451,0.3803921568627451,1.0],1.0,[1.0,1.0,1.0,1.0],0.0,0.9900000095367432,0.0,1.0,0.0,0.0,[1.0,1.0,1.0,1.0],0.0,1.5199999809265137,0.0,[1.0,1.0,1.0,1.0],1.0,0.0,[1.0,1.0,1.0,1.0],0.0,[1.0,1.0,1.0,1.0],0.0,[0,0,0],[0,0,0],0,1],"is_active_output":false,"name":"template_material","outputs":[[0,0,0,0]],"roughnessInv":false,"thinWalled":false,"transRoughnessInv":false,"transRoughnessLock":true,"type":"PHYSICAL_MX"}]},"profile":"max"}},"name":"template_material"},{"doubleSided":false,"extensions":{"S8S_v3d_materials":{"gtaoVisible":true,"nodeGraph":{"edges":[{"fromNode":1,"fromOutput":0,"toInput":0,"toNode":0},{"fromNode":1,"fromOutput":1,"toInput":1,"toNode":0}],"nodes":[{"inputs":[[1,1,1,1]],"is_active_output":true,"name":"MaxOutput","outputs":[],"type":"OUTPUT_MX"},{"brdfCurve":5.0,"brdfHigh":1.0,"brdfLow":0.05000000074505806,"brdfMode":true,"emitLuminance":1500.0,"inputFactors":[0,0,0,0,0,0,0,0,0,0,0,0,0,0,0,0,0,0,0,0,0,0,0,0,0],"inputs":[0.8600000143051147,[0.7361963010301777,0.3522902544806985,0.0,1.0],1.0,[1.0,1.0,1.0,1.0],0.0,0.7400000095367432,0.0,1.0,0.0,0.0,[1.0,1.0,1.0,1.0],0.0,1.5199999809265137,0.0,[1.0,1.0,1.0,1.0],1.0,1.0,[0.0,0.0,0.0,1.0],0.0,[1.0,1.0,1.0,1.0],0.0,[0,0,0],[0,0,0],0,1],"is_active_output":false,"name":"Material #2","outputs":[[0,0,0,0]],"roughnessInv":false,"thinWalled":false,"transRoughnessInv":false,"transRoughnessLock":true,"type":"PHYSICAL_MX"}]},"profile":"max"}},"name":"Material #2"},{"extensions":{"S8S_v3d_materials":{"nodeGraph":{"edges":[{"fromNode":1,"fromOutput":0,"toInput":0,"toNode":0},{"fromNode":1,"fromOutput":1,"toInput":1,"toNode":0}],"nodes":[{"inputs":[[1,1,1,1]],"is_active_output":true,"name":"MaxOutput","outputs":[],"type":"OUTPUT_MX"},{"alphaAsMono":false,"alphaAsRGB":false,"alphaSource":"FILE","axis":"XY","clampToEdgeNoExtend":[false,false],"inputs":[0.0,0.0,1.0,1.0,0.0],"is_active_output":false,"mapping":"SPHERICAL_ENVIRONMENT","name":"\u8d34\u56fe #3","outputs":[[0,0,0,0]],"texture":0,"type":"BITMAP_ENV_MX","uvIndex":0}]},"profile":"max"}},"name":"Verge3D_Environment"}],"meshes":[{"name":"Cylinder001","primitives":[{"attributes":{"NORMAL":2,"POSITION":1,"TEXCOORD_0":3},"indices":0,"material":0,"mode":4}]},{"name":"Cylinder002","primitives":[{"attributes":{"NORMAL":6,"POSITION":5,"TEXCOORD_0":7},"indices":4,"material":1,"mode":4}]},{"name":"Cylinder003","primitives":[{"attributes":{"NORMAL":10,"POSITION":9,"TEXCOORD_0":11},"indices":8,"material":2,"mode":4}]}],"nodes":[{"camera":0,"extensions":{"S8S_v3d_node":{"hidden":false}},"name":"Camera001","rotation":[0.057493627071380615,0.8992789387702942,0.12448766082525253,-0.41532477736473083],"scale":[1.0,0.9999998807907104,1.0],"translation":[-104.94540405273438,43.45652389526367,-89.86163330078125]},{"extensions":{"S8S_v3d_node":{"hidden":false}},"name":"Camera001.Target","translation":[0.49858179688453674,4.360669136047363,-0.054980501532554626]},{"extensions":{"S8S_v3d_node":{"frustumCulling":true,"hidden":false,"hidpiCompositing":false,"renderOrder":0,"useCastShadows":true,"useShadows":true}},"mesh":0,"name":"Cylinder001","scale":[19.990388870239258,19.990388870239258,19.990388870239258],"translation":[-0.0006997148157097399,-15.178545951843262,0.024436023086309433]},{"extensions":{"S8S_v3d_node":{"frustumCulling":true,"hidden":false,"hidpiCompositing":false,"renderOrder":0,"useCastShadows":true,"useShadows":true}},"mesh":1,"name":"Cylinder002","scale":[19.990388870239258,19.990388870239258,19.990388870239258],"translation":[-0.0006997148157097399,-15.178545951843262,0.024436023086309433]},{"extensions":{"S8S_v3d_node":{"frustumCulling":true,"hidden":false,"hidpiCompositing":false,"renderOrder":0,"useCastShadows":true,"useShadows":true}},"mesh":2,"name":"Cylinder003","scale":[19.990388870239258,19.990388870239258,19.990388870239258],"translation":[-0.0006997148157097399,-15.178545951843262,0.024436023086309433]},{"extensions":{"S8S_v3d_lights":{"light":0}},"name":"__AMBIENT__","rotation":[-0.7071068286895752,-0.0,-0.0,0.7071067690849304],"scale":[1.0,1.0,1.0],"translation":[0.0,0.0,0.0]}],"samplers":[{}],"scene":0,"scenes":[{"extensions":{"S8S_v3d_scene":{"aaMethod":"AUTO","iblEnvironmentMode":"PMREM","physicallyCorrectLights":true,"pmremMaxTileSize":256,"shadowMap":{"esmDistanceScale":0.30000001192092896,"renderReverseSided":false,"renderSingleSided":true,"type":"PCFPOISSON"},"unitsScaleFactor":1.0,"worldMaterial":3}},"extras":{"animFrameRate":30,"coordSystem":"Z_UP_RIGHT"},"name":"Scene","nodes":[0,1,2,3,4,5]}],"textures":[{"extensions":{"S8S_v3d_texture":{"colorSpace":"linear","source":0}},"name":"\u8d34\u56fe #3","sampler":0}]}
